HIERARCHY
ROOT Hips
{
	OFFSET 0.000000 71.427986 0.000000
	CHANNELS 6 Xposition Yposition Zposition Xrotation Yrotation Zrotation
	JOINT Pelvis
	{
		OFFSET 0.000000 0.000000 0.000000
		CHANNELS 3 Xrotation Yrotation Zrotation
		JOINT LeftUpLeg
		{
			OFFSET 6.797100 -2.508499 -1.318700
			CHANNELS 3 Xrotation Yrotation Zrotation
			JOINT LeftLeg
			{
				OFFSET 0.069008 -29.241863 0.690200
				CHANNELS 3 Xrotation Yrotation Zrotation
				JOINT LeftFoot
				{
					OFFSET -0.069008 -29.568123 -0.266800
					CHANNELS 3 Xrotation Yrotation Zrotation
					JOINT LeftToeBase
					{
						OFFSET 3.145500 -8.631000 16.059900
						CHANNELS 3 Xrotation Yrotation Zrotation
						End Site
						{
							OFFSET 0.000000 18.501587 0.000000
						}
					}
				}
			}
			JOINT Left_ShortSleeve
			{
				OFFSET 0.265923 -10.480953 1.153800
				CHANNELS 3 Xrotation Yrotation Zrotation
				End Site
				{
					OFFSET 1.725763 19.823879 0.000000
				}
			}
		}
		JOINT RightUpLeg
		{
			OFFSET -6.797100 -2.508499 -1.318700
			CHANNELS 3 Xrotation Yrotation Zrotation
			JOINT RightLeg
			{
				OFFSET -0.082453 -29.241932 0.688000
				CHANNELS 3 Xrotation Yrotation Zrotation
				JOINT RightFoot
				{
					OFFSET 0.082453 -29.568058 -0.264600
					CHANNELS 3 Xrotation Yrotation Zrotation
					JOINT RightToeBase
					{
						OFFSET -3.115300 -8.682800 16.113400
						CHANNELS 3 Xrotation Yrotation Zrotation
						End Site
						{
							OFFSET 0.000000 18.567114 0.000000
						}
					}
				}
			}
			JOINT Right_ShortSleeve
			{
				OFFSET -0.265923 -10.480953 1.153800
				CHANNELS 3 Xrotation Yrotation Zrotation
				End Site
				{
					OFFSET -1.725766 19.823910 0.000000
				}
			}
		}
	}
	JOINT Spine
	{
		OFFSET 0.000000 13.368103 0.470500
		CHANNELS 3 Xrotation Yrotation Zrotation
		JOINT Spine1
		{
			OFFSET 0.147000 13.837402 0.538800
			CHANNELS 3 Xrotation Yrotation Zrotation
			JOINT Spine2
			{
				OFFSET 0.168000 16.242897 -1.435500
				CHANNELS 3 Xrotation Yrotation Zrotation
				JOINT Neck
				{
					OFFSET 0.217200 18.631500 -1.679100
					CHANNELS 3 Xrotation Yrotation Zrotation
					JOINT Head
					{
						OFFSET 0.000000 6.599396 1.385900
						CHANNELS 3 Xrotation Yrotation Zrotation
						JOINT Hat
						{
							OFFSET -0.532200 27.220596 -10.096100
							CHANNELS 3 Xrotation Yrotation Zrotation
							End Site
							{
								OFFSET 0.000000 22.029861 0.000000
							}
						}
						JOINT HairD
						{
							OFFSET -10.777400 17.437393 -1.325900
							CHANNELS 3 Xrotation Yrotation Zrotation
							JOINT HairD1
							{
								OFFSET -3.290299 -11.051193 1.062200
								CHANNELS 3 Xrotation Yrotation Zrotation
								End Site
								{
									OFFSET 0.000000 11.579437 0.000000
								}
							}
						}
						JOINT HairB
						{
							OFFSET -10.777400 17.437393 1.467900
							CHANNELS 3 Xrotation Yrotation Zrotation
							JOINT HairB1
							{
								OFFSET -1.561200 -12.956299 3.590200
								CHANNELS 3 Xrotation Yrotation Zrotation
								End Site
								{
									OFFSET 0.000000 13.534866 0.000000
								}
							}
						}
						JOINT HairA
						{
							OFFSET 9.713100 17.437393 1.467900
							CHANNELS 3 Xrotation Yrotation Zrotation
							JOINT HairA1
							{
								OFFSET 1.561200 -12.956299 3.590200
								CHANNELS 3 Xrotation Yrotation Zrotation
								End Site
								{
									OFFSET 0.000000 13.534866 0.000000
								}
							}
						}
						JOINT HairC
						{
							OFFSET 9.713100 17.437393 -1.325900
							CHANNELS 3 Xrotation Yrotation Zrotation
							JOINT HairC1
							{
								OFFSET 3.290300 -11.051193 1.062200
								CHANNELS 3 Xrotation Yrotation Zrotation
								End Site
								{
									OFFSET 0.000000 11.579437 0.000000
								}
							}
						}
					}
				}
				JOINT LeftShoulder
				{
					OFFSET 5.101800 15.108002 -2.763700
					CHANNELS 3 Xrotation Yrotation Zrotation
					JOINT LeftArm
					{
						OFFSET 9.825497 2.506317 -1.597400
						CHANNELS 3 Xrotation Yrotation Zrotation
						JOINT LeftForeArm
						{
							OFFSET 21.966244 0.000000 0.000000
							CHANNELS 3 Xrotation Yrotation Zrotation
							JOINT LeftHand
							{
								OFFSET 33.879036 0.000000 0.000000
								CHANNELS 3 Xrotation Yrotation Zrotation
								JOINT LeftHandThumb1
								{
									OFFSET 6.715286 -2.359680 3.363841
									CHANNELS 3 Xrotation Yrotation Zrotation
									JOINT LeftHandThumb2
									{
										OFFSET 2.507072 -1.447464 1.447461
										CHANNELS 3 Xrotation Yrotation Zrotation
										JOINT LeftHandThumb3
										{
											OFFSET 2.898338 -1.673355 1.673357
											CHANNELS 3 Xrotation Yrotation Zrotation
											End Site
											{
												OFFSET -0.295959 3.727692 -0.131651
											}
										}
									}
								}
								JOINT LeftHandIndex1
								{
									OFFSET 14.190811 -0.254547 3.840278
									CHANNELS 3 Xrotation Yrotation Zrotation
									JOINT LeftHandIndex2
									{
										OFFSET 3.551727 0.000000 -0.000000
										CHANNELS 3 Xrotation Yrotation Zrotation
										JOINT LeftHandIndex3
										{
											OFFSET 2.894196 0.000000 0.000000
											CHANNELS 3 Xrotation Yrotation Zrotation
											End Site
											{
												OFFSET -1.000603 2.690872 0.366626
											}
										}
									}
								}
								JOINT LeftHandMiddle1
								{
									OFFSET 13.776489 0.000000 0.000000
									CHANNELS 3 Xrotation Yrotation Zrotation
									JOINT LeftHandMiddle2
									{
										OFFSET 3.438232 0.000000 0.000000
										CHANNELS 3 Xrotation Yrotation Zrotation
										JOINT LeftHandMiddle3
										{
											OFFSET 3.691551 0.000000 0.000000
											CHANNELS 3 Xrotation Yrotation Zrotation
											End Site
											{
												OFFSET -1.082298 3.499527 0.457670
											}
										}
									}
								}
								JOINT LeftHandRing1
								{
									OFFSET 13.966164 -0.268127 -3.067488
									CHANNELS 3 Xrotation Yrotation Zrotation
									JOINT LeftHandRing2
									{
										OFFSET 3.162567 0.000000 0.000000
										CHANNELS 3 Xrotation Yrotation Zrotation
										JOINT LeftHandRing3
										{
											OFFSET 3.324348 0.000000 0.000000
											CHANNELS 3 Xrotation Yrotation Zrotation
											End Site
											{
												OFFSET -0.861900 3.184998 0.405154
											}
										}
									}
								}
								JOINT LeftHandPinky1
								{
									OFFSET 13.131393 -0.168503 -5.746925
									CHANNELS 3 Xrotation Yrotation Zrotation
									JOINT LeftHandPinky2
									{
										OFFSET 2.849182 0.000000 0.000000
										CHANNELS 3 Xrotation Yrotation Zrotation
										JOINT LeftHandPinky3
										{
											OFFSET 2.805038 0.000000 0.000000
											CHANNELS 3 Xrotation Yrotation Zrotation
											End Site
											{
												OFFSET -0.882500 2.642609 0.325652
											}
										}
									}
								}
							}
							JOINT Left_Sleeve
							{
								OFFSET 6.592125 -0.646545 0.805568
								CHANNELS 3 Xrotation Yrotation Zrotation
								End Site
								{
									OFFSET -0.000179 20.275787 -0.000000
								}
							}
						}
					}
				}
				JOINT RightShoulder
				{
					OFFSET -5.731700 15.108002 -2.763700
					CHANNELS 3 Xrotation Yrotation Zrotation
					JOINT RightArm
					{
						OFFSET -9.825497 2.506317 -1.597400
						CHANNELS 3 Xrotation Yrotation Zrotation
						JOINT RightForeArm
						{
							OFFSET -21.966242 0.000000 0.000000
							CHANNELS 3 Xrotation Yrotation Zrotation
							JOINT RightHand
							{
								OFFSET -33.879032 0.000000 0.000000
								CHANNELS 3 Xrotation Yrotation Zrotation
								JOINT RightHandThumb1
								{
									OFFSET -6.715286 -2.359680 3.363841
									CHANNELS 3 Xrotation Yrotation Zrotation
									JOINT RightHandThumb2
									{
										OFFSET -2.507072 -1.447464 1.447461
										CHANNELS 3 Xrotation Yrotation Zrotation
										JOINT RightHandThumb3
										{
											OFFSET -2.898338 -1.673355 1.673357
											CHANNELS 3 Xrotation Yrotation Zrotation
											End Site
											{
												OFFSET 0.295959 3.727692 -0.131651
											}
										}
									}
								}
								JOINT RightHandIndex1
								{
									OFFSET -14.190811 -0.254547 3.840278
									CHANNELS 3 Xrotation Yrotation Zrotation
									JOINT RightHandIndex2
									{
										OFFSET -3.551727 0.000000 -0.000000
										CHANNELS 3 Xrotation Yrotation Zrotation
										JOINT RightHandIndex3
										{
											OFFSET -2.894196 0.000000 0.000000
											CHANNELS 3 Xrotation Yrotation Zrotation
											End Site
											{
												OFFSET 1.000603 2.690872 0.366626
											}
										}
									}
								}
								JOINT RightHandMiddle1
								{
									OFFSET -13.776489 0.000000 0.000000
									CHANNELS 3 Xrotation Yrotation Zrotation
									JOINT RightHandMiddle2
									{
										OFFSET -3.438232 0.000000 0.000000
										CHANNELS 3 Xrotation Yrotation Zrotation
										JOINT RightHandMiddle3
										{
											OFFSET -3.691551 0.000000 0.000000
											CHANNELS 3 Xrotation Yrotation Zrotation
											End Site
											{
												OFFSET 1.082298 3.499527 0.457670
											}
										}
									}
								}
								JOINT RightHandRing1
								{
									OFFSET -13.966164 -0.268127 -3.067488
									CHANNELS 3 Xrotation Yrotation Zrotation
									JOINT RightHandRing2
									{
										OFFSET -3.162567 0.000000 0.000000
										CHANNELS 3 Xrotation Yrotation Zrotation
										JOINT RightHandRing3
										{
											OFFSET -3.324348 0.000000 0.000000
											CHANNELS 3 Xrotation Yrotation Zrotation
											End Site
											{
												OFFSET 0.861900 3.184998 0.405154
											}
										}
									}
								}
								JOINT RightHandPinky1
								{
									OFFSET -13.131393 -0.168503 -5.746925
									CHANNELS 3 Xrotation Yrotation Zrotation
									JOINT RightHandPinky2
									{
										OFFSET -2.849182 0.000000 0.000000
										CHANNELS 3 Xrotation Yrotation Zrotation
										JOINT RightHandPinky3
										{
											OFFSET -2.805038 0.000000 0.000000
											CHANNELS 3 Xrotation Yrotation Zrotation
											End Site
											{
												OFFSET 0.882500 2.642609 0.325652
											}
										}
									}
								}
							}
							JOINT Right_Sleeve
							{
								OFFSET -6.592125 -0.646545 0.805568
								CHANNELS 3 Xrotation Yrotation Zrotation
								End Site
								{
									OFFSET 0.000179 20.275787 -0.000000
								}
							}
						}
					}
				}
				JOINT Bind_Right_JacketString
				{
					OFFSET -3.534800 11.969597 7.200700
					CHANNELS 3 Xrotation Yrotation Zrotation
					JOINT Bind_Right_JacketString1
					{
						OFFSET -0.319900 -6.102600 2.794100
						CHANNELS 3 Xrotation Yrotation Zrotation
						End Site
						{
							OFFSET 0.000000 6.719452 0.000000
						}
					}
				}
				JOINT Bind_Left_JacketString
				{
					OFFSET 2.904800 11.969597 7.200700
					CHANNELS 3 Xrotation Yrotation Zrotation
					JOINT Bind_Left_JacketString1
					{
						OFFSET 0.364800 -5.904503 3.186800
						CHANNELS 3 Xrotation Yrotation Zrotation
						End Site
						{
							OFFSET 0.000000 6.719513 0.000000
						}
					}
				}
				JOINT HairE
				{
					OFFSET 5.915200 17.612701 -11.592200
					CHANNELS 3 Xrotation Yrotation Zrotation
					JOINT HairE1
					{
						OFFSET 0.289200 -7.171898 -1.284500
						CHANNELS 3 Xrotation Yrotation Zrotation
						End Site
						{
							OFFSET 0.000000 7.291756 0.000000
						}
					}
				}
				JOINT HairF
				{
					OFFSET -0.864800 17.612701 -11.592200
					CHANNELS 3 Xrotation Yrotation Zrotation
					JOINT HairF1
					{
						OFFSET 0.000000 -14.087097 -2.127501
						CHANNELS 3 Xrotation Yrotation Zrotation
						End Site
						{
							OFFSET 0.000000 14.246841 0.000000
						}
					}
				}
				JOINT HairG
				{
					OFFSET -8.087700 17.612701 -11.592200
					CHANNELS 3 Xrotation Yrotation Zrotation
					JOINT HairG1
					{
						OFFSET -0.293600 -6.081398 -0.910100
						CHANNELS 3 Xrotation Yrotation Zrotation
						End Site
						{
							OFFSET 0.000000 6.156120 0.000000
						}
					}
				}
			}
		}
	}
	JOINT Pouch
	{
		OFFSET 0.000000 4.394501 10.847300
		CHANNELS 3 Xrotation Yrotation Zrotation
		End Site
		{
			OFFSET 0.000000 21.880577 0.000000
		}
	}
	JOINT Bag
	{
		OFFSET -13.229000 4.813004 -0.593300
		CHANNELS 3 Xrotation Yrotation Zrotation
		End Site
		{
			OFFSET 0.000000 21.880577 0.000000
		}
	}
	JOINT OccupyGuyFacialAnim_Joint
	{
		OFFSET 1.000000 -70.206398 -1.655000
		CHANNELS 3 Xrotation Yrotation Zrotation
		End Site
		{
			OFFSET 0.000000 21.880577 0.000000
		}
	}
}
MOTION
Frames: 4
Frame Time: 0.033333
0.082556 61.796608 0.525083 -4.536885 -163.451085 -10.405920 -0.000000 0.000000 0.000001 -55.246924 9.705247 19.803041 99.708112 27.110597 -0.960704 -1.666449 -0.406679 7.380749 -0.000001 -0.000001 -0.000002 -0.000000 -0.000001 -0.000003 -44.527472 -3.194084 16.350231 53.792306 -18.350024 -3.030781 -14.483085 -0.194096 1.319638 -0.000000 0.000000 0.000000 -0.000002 0.000000 0.000001 -1.186633 -1.291121 0.647981 -2.435780 -2.852099 -0.872997 -2.435779 -2.852100 -0.873000 5.734656 18.254872 -0.301863 7.499278 39.902344 -23.386646 -0.000003 0.000002 -0.000000 -0.000003 0.000002 -0.000000 -0.000003 0.000002 0.000000 -0.000003 0.000002 -0.000001 -0.000002 0.000000 0.000000 -0.000003 0.000002 -0.000001 -0.000002 0.000000 0.000000 -0.000003 0.000002 -0.000000 -0.000003 0.000002 -0.000000 4.407119 -8.868918 -19.930641 1.470759 8.534116 -32.040738 44.062971 -15.955517 -10.524659 35.886056 -8.947537 14.751617 -6.901198 -1.278370 10.374502 2.324045 6.713111 2.170588 0.000002 -0.000000 -0.000001 -0.025651 -0.779023 -8.680789 0.058220 0.767387 -16.878939 0.000001 0.000001 -0.000002 -0.146336 0.615942 -12.274269 -0.087995 -0.365313 -10.510486 0.000001 0.000000 -0.000001 -0.092251 7.427044 -16.709778 -0.121663 -1.628616 -13.116871 -0.000001 0.000000 -0.000001 -0.102670 13.411485 -11.521854 -0.501915 -5.460341 -22.583867 0.000002 0.000001 -0.000002 0.000000 0.000000 -0.000000 0.822370 -2.357247 14.288160 9.970592 -20.719990 41.755262 38.647341 24.515644 11.063686 33.225390 9.936251 -3.039073 -11.704810 6.638684 13.043682 1.802592 -5.540928 -2.039495 -0.000001 -0.000001 0.000000 -0.373799 6.502812 17.280887 0.120526 -1.119642 16.859799 0.000000 -0.000000 0.000000 -1.375771 -2.055542 27.678780 -0.628624 1.714532 29.211691 -0.000000 -0.000001 0.000001 2.120881 -10.589990 36.061176 -0.517092 2.927854 25.958084 0.000001 -0.000001 0.000002 3.370796 -19.284441 24.819198 -0.721800 6.669768 22.272748 -0.000001 -0.000000 0.000001 0.000003 0.000000 0.000001 -0.000000 -0.000002 0.000001 -0.000000 -0.000001 -0.000000 -0.000000 -0.000002 0.000001 -0.000000 -0.000002 0.000001 -0.000000 -0.000002 0.000001 -0.000000 -0.000001 -0.000000 -0.000000 -0.000002 0.000001 -0.000000 -0.000002 0.000001 -0.000000 -0.000002 0.000001 -0.000000 -0.000001 -0.000000 -0.000000 0.000000 0.000001 -0.000000 0.000000 0.000001 -0.000000 0.000000 0.000001 
-2.405435 62.057335 0.618033 -4.423839 -164.410303 -9.934026 0.000000 0.000001 0.000000 -55.468161 5.150355 20.584107 95.398447 31.167150 0.455234 -5.824887 -0.828703 8.660024 0.000000 -0.000000 -0.000003 -0.000002 0.000001 -0.000001 -43.858837 -2.005230 14.541447 53.840148 -16.750300 -4.201539 -14.833945 -0.713043 3.911748 -0.000000 0.000000 -0.000000 -0.000003 -0.000001 -0.000000 -1.254468 -1.087218 0.547568 -2.565803 -2.462094 -1.112649 -2.565804 -2.462099 -1.112650 5.704246 18.487355 -0.299198 7.501255 40.120149 -23.175882 -0.000001 -0.000000 -0.000002 -0.000001 -0.000000 -0.000002 -0.000001 -0.000000 -0.000001 -0.000001 -0.000000 -0.000001 -0.000001 -0.000000 -0.000001 -0.000001 -0.000000 -0.000001 -0.000001 -0.000000 -0.000001 -0.000001 -0.000000 -0.000002 -0.000001 -0.000000 -0.000002 4.453382 -8.478567 -19.626055 1.854521 9.446678 -32.363560 43.917375 -15.859132 -10.501535 35.831425 -9.033589 13.930434 -6.761121 -1.267533 10.121718 2.291437 6.642440 2.163993 0.000000 0.000001 -0.000003 -0.026891 -0.787062 -8.762509 0.055768 0.759436 -16.947178 0.000001 0.000000 -0.000000 -0.149247 0.602624 -12.440390 -0.089004 -0.370844 -10.579034 0.000000 -0.000000 0.000001 -0.247051 7.437583 -16.897632 -0.123011 -1.634288 -13.185408 -0.000002 0.000001 -0.000002 -0.258879 13.404817 -11.811261 -0.503086 -5.463228 -22.652556 0.000000 -0.000001 0.000001 0.000001 0.000001 0.000000 0.827515 -2.272632 14.450727 10.207262 -20.818060 42.001661 38.575047 24.590459 10.959364 33.070188 9.841248 -2.986396 -11.704818 6.638682 13.043682 1.802591 -5.540927 -2.039496 -0.000001 -0.000001 0.000000 -0.373799 6.502813 17.280886 0.120529 -1.119643 16.859801 -0.000000 0.000000 -0.000001 -1.375793 -2.055548 27.678780 -0.628620 1.714528 29.211695 0.000000 0.000001 0.000001 2.100944 -10.560852 36.210163 -0.531757 2.955198 26.293542 0.000001 0.000002 -0.000002 3.358112 -19.256402 24.961850 -0.730430 6.690921 22.571062 -0.000000 0.000001 -0.000003 -0.000004 -0.000000 0.000001 0.000000 -0.000000 0.000002 0.000000 -0.000001 -0.000000 0.000000 -0.000000 0.000001 0.000000 -0.000000 0.000001 0.000000 -0.000000 0.000002 0.000000 -0.000001 -0.000000 0.000000 -0.000000 0.000001 0.000000 -0.000000 0.000001 0.000000 -0.000000 0.000002 0.000000 -0.000001 -0.000000 0.000000 0.000001 0.000000 0.000000 0.000001 0.000000 0.000000 0.000001 0.000000 
-4.980210 62.248260 0.724733 -4.351713 -165.389247 -9.547816 -0.000000 -0.000000 0.000000 -54.320515 2.175125 22.973372 87.482907 31.591134 2.325006 -9.838780 -1.384052 10.119542 -0.000000 0.000002 -0.000001 -0.000000 -0.000000 -0.000002 -43.163298 -0.775543 12.591002 53.743367 -15.093106 -5.210444 -15.104238 -1.206897 6.488003 0.000000 0.000000 -0.000000 -0.000000 -0.000001 -0.000001 -1.358814 -0.863822 0.399051 -2.762535 -2.011817 -1.260939 -2.762535 -2.011810 -1.260940 5.729844 18.716619 -0.000720 7.677548 40.414451 -23.143118 -0.000001 0.000000 0.000001 -0.000001 0.000000 0.000001 -0.000001 0.000000 0.000001 -0.000001 0.000000 0.000001 -0.000002 0.000000 0.000001 -0.000001 0.000000 0.000001 -0.000002 0.000000 0.000001 -0.000001 0.000000 0.000001 -0.000001 0.000000 0.000001 4.492618 -8.025226 -19.166593 2.243930 10.050820 -32.817614 44.036484 -15.893089 -10.407677 35.963596 -9.267882 13.148663 -6.369544 -1.241108 9.418738 2.202344 6.445252 2.141702 0.000003 -0.000000 0.000002 -0.030306 -0.809457 -8.989992 0.048958 0.737275 -17.137114 0.000002 0.000001 -0.000002 -0.158508 0.561435 -12.902442 -0.091894 -0.386169 -10.769783 -0.000000 0.000001 0.000001 -0.677298 7.472428 -17.420899 -0.126724 -1.650086 -13.376210 0.000001 0.000000 -0.000003 -0.693081 13.396176 -12.617702 -0.504604 -5.467058 -22.844102 0.000001 0.000000 0.000001 0.000003 0.000000 0.000000 0.847366 -2.199430 14.907781 10.390564 -21.257193 41.643045 38.659810 24.721564 10.940383 32.914443 9.741205 -3.114080 -11.704812 6.638684 13.043684 1.802595 -5.540927 -2.039495 0.000001 -0.000001 -0.000000 -0.373800 6.502813 17.280889 0.120527 -1.119642 16.859798 -0.000001 -0.000000 0.000002 -1.375782 -2.055549 27.678770 -0.628628 1.714514 29.211688 -0.000001 -0.000000 -0.000001 2.045865 -10.488419 36.599169 -0.570318 3.022347 27.181592 -0.000001 0.000002 -0.000001 3.319731 -19.181323 25.333207 -0.754621 6.746743 23.365894 0.000003 0.000002 -0.000004 0.000001 -0.000000 -0.000001 0.000001 0.000000 0.000001 0.000000 0.000001 -0.000001 0.000001 0.000000 0.000001 0.000001 0.000000 0.000001 0.000001 0.000000 0.000001 0.000000 0.000001 -0.000001 0.000001 0.000000 0.000001 0.000001 0.000000 0.000001 0.000001 0.000000 0.000001 0.000000 0.000001 -0.000001 -0.000000 -0.000000 0.000000 -0.000000 -0.000000 0.000000 -0.000000 -0.000000 0.000000 
-7.618156 62.358269 0.845031 -4.413302 -166.423228 -9.275651 -0.000000 0.000000 0.000001 -52.505471 1.576729 26.313259 76.822771 29.761398 4.764652 -14.143297 -2.335058 12.722169 -0.000001 -0.000002 -0.000002 0.000001 0.000001 0.000000 -42.545061 0.509051 10.544781 53.465888 -13.418102 -6.054179 -15.262915 -1.656959 9.040956 0.000000 -0.000000 0.000000 0.000001 0.000000 -0.000001 -1.500742 -0.624389 0.276719 -3.032223 -1.520497 -1.273684 -3.032225 -1.520493 -1.273683 5.641279 19.001924 0.259631 7.830468 40.724388 -22.999704 -0.000001 0.000001 0.000000 -0.000001 0.000001 0.000000 -0.000001 0.000001 0.000001 -0.000001 0.000001 0.000001 -0.000000 0.000001 -0.000000 -0.000001 0.000001 0.000001 -0.000000 0.000001 -0.000000 -0.000001 0.000001 0.000000 -0.000001 0.000001 0.000000 4.551965 -7.465856 -18.744694 2.515925 10.267588 -33.275835 44.401677 -15.988926 -10.290118 36.399728 -9.572342 12.704139 -5.772405 -1.209988 8.346890 2.069168 6.143323 2.108330 0.000001 -0.000001 -0.000001 -0.035508 -0.843593 -9.336712 0.038600 0.703516 -17.426584 0.000001 0.000001 -0.000000 -0.174291 0.493978 -13.606310 -0.097234 -0.413730 -11.060120 0.000004 0.000000 -0.000001 -1.330966 7.541056 -18.219396 -0.130842 -1.667275 -13.667524 -0.000001 -0.000000 -0.000000 -1.353686 13.407012 -13.848386 -0.507051 -5.472802 -23.136011 0.000000 0.000001 -0.000001 0.000002 0.000001 0.000000 0.874275 -2.143529 15.493523 10.400099 -22.074423 40.566877 38.856482 25.186092 11.251844 32.772924 9.158315 -3.002053 -11.704816 6.638684 13.043684 1.802592 -5.540929 -2.039495 0.000000 -0.000001 0.000001 -0.373802 6.502814 17.280886 0.120531 -1.119642 16.859796 0.000000 -0.000000 0.000000 -1.375793 -2.055533 27.678780 -0.628633 1.714523 29.211691 0.000002 -0.000000 -0.000003 1.970891 -10.392659 37.142343 -0.623942 3.117569 28.443640 -0.000000 0.000000 0.000002 3.266820 -19.081038 25.853014 -0.792388 6.825540 24.507316 -0.000002 -0.000001 0.000000 -0.000001 0.000001 0.000001 -0.000000 -0.000001 0.000001 -0.000000 -0.000000 -0.000000 -0.000000 -0.000001 0.000001 -0.000000 -0.000001 0.000001 -0.000000 -0.000001 0.000001 -0.000000 -0.000000 -0.000000 -0.000000 -0.000001 0.000001 -0.000000 -0.000001 0.000001 -0.000000 -0.000001 0.000001 -0.000000 -0.000000 -0.000000 -0.000000 0.000000 0.000001 -0.000000 0.000000 0.000001 -0.000000 0.000000 0.000001 
